HIERARCHY
ROOT Hips
{
 OFFSET 0.000000 0.000000 0.000000
 CHANNELS 6 Xposition Yposition Zposition Yrotation Xrotation Zrotation
 JOINT Chest
 {
  OFFSET 0.000000 9.585900 0.002600
  CHANNELS 3 Yrotation Xrotation Zrotation
  JOINT Chest2
  {
   OFFSET 0.000000 9.601200 -0.005300
   CHANNELS 3 Yrotation Xrotation Zrotation
   JOINT Chest3
   {
    OFFSET 0.000000 9.561800 0.000000
    CHANNELS 3 Yrotation Xrotation Zrotation
    JOINT Chest4
    {
     OFFSET 0.000000 9.552100 0.000000
     CHANNELS 3 Yrotation Xrotation Zrotation
     JOINT Neck
     {
      OFFSET 0.000000 14.453000 0.000000
      CHANNELS 3 Yrotation Xrotation Zrotation
      JOINT Head
      {
       OFFSET 0.000000 8.936500 -0.011300
       CHANNELS 3 Yrotation Xrotation Zrotation
       End Site
       {
        OFFSET 0.000000 17.073600 -0.006000
       }
      }
     }
     JOINT RightCollar
     {
      OFFSET -2.921100 9.558500 0.000000
      CHANNELS 3 Yrotation Xrotation Zrotation
      JOINT RightShoulder
      {
       OFFSET -13.519700 0.000000 0.000000
       CHANNELS 3 Yrotation Xrotation Zrotation
       JOINT RightElbow
       {
        OFFSET 0.000000 -29.696600 0.000000
        CHANNELS 3 Yrotation Xrotation Zrotation
        JOINT RightWrist
        {
         OFFSET 0.000000 -24.004700 0.000000
         CHANNELS 3 Yrotation Xrotation Zrotation
         End Site
         {
          OFFSET 0.000000 -17.728500 0.000000
         }
        }
       }
      }
     }
     JOINT LeftCollar
     {
      OFFSET 2.921100 9.558500 0.000000
      CHANNELS 3 Yrotation Xrotation Zrotation
      JOINT LeftShoulder
      {
       OFFSET 13.519700 0.000000 0.000000
       CHANNELS 3 Yrotation Xrotation Zrotation
       JOINT LeftElbow
       {
        OFFSET 0.000000 -29.696600 0.000000
        CHANNELS 3 Yrotation Xrotation Zrotation
        JOINT LeftWrist
        {
         OFFSET 0.000000 -24.004700 0.000000
         CHANNELS 3 Yrotation Xrotation Zrotation
         End Site
         {
          OFFSET 0.000000 -17.728500 0.000000
         }
        }
       }
      }
     }
    }
   }
  }
 }
 JOINT RightHip
 {
  OFFSET -7.771700 -0.012900 -0.001300
  CHANNELS 3 Yrotation Xrotation Zrotation
  JOINT RightKnee
  {
   OFFSET 0.000000 -40.869800 0.001200
   CHANNELS 3 Yrotation Xrotation Zrotation
   JOINT RightAnkle
   {
    OFFSET 0.000000 -39.717900 0.002100
    CHANNELS 3 Yrotation Xrotation Zrotation
    JOINT RightToe
    {
     OFFSET 0.000000 -4.965400 11.033500
     CHANNELS 3 Yrotation Xrotation Zrotation
     End Site
     {
      OFFSET 0.000000 -1.423100 5.872300
     }
    }
   }
  }
 }
 JOINT LeftHip
 {
  OFFSET 7.771700 -0.012900 -0.001300
  CHANNELS 3 Yrotation Xrotation Zrotation
  JOINT LeftKnee
  {
   OFFSET 0.000000 -40.869800 0.001200
   CHANNELS 3 Yrotation Xrotation Zrotation
   JOINT LeftAnkle
   {
    OFFSET 0.000000 -39.717900 0.002100
    CHANNELS 3 Yrotation Xrotation Zrotation
    JOINT LeftToe
    {
     OFFSET 0.000000 -4.965400 11.033500
     CHANNELS 3 Yrotation Xrotation Zrotation
     End Site
     {
      OFFSET 0.000000 -1.423100 5.872300
     }
    }
   }
  }
 }
}
MOTION
Frames: 16
Frame Time: 0.008333
0.000000 85.388000 0.000000 0.000000 -5.767877 0.000000 0.000000 11.653817 0.000000 0.000000 -5.885947 0.000000 0.000000 -0.000000 0.000000 0.000000 -0.000000 0.000000 0.000000 12.528835 0.000000 0.000000 0.711642 0.000000 0.000000 -0.000000 0.000000 0.000000 0.000000 -90.000000 0.000000 -2.309062 0.000000 0.000000 2.309062 0.000000 0.000000 -0.000000 0.000000 0.000000 -0.000000 90.000000 0.000000 -2.309062 0.000000 0.000000 2.309062 0.000000 0.000000 8.520406 0.000000 0.000000 1.905762 0.000000 -0.000000 -4.658285 0.000000 0.000000 -0.000000 0.000000 0.000000 8.520406 0.000000 0.000000 1.905762 0.000000 -0.000000 -4.658285 0.000000 0.000000 -0.000000 0.000000
-5.920766 52.288919 29.459925 171.672130 -37.523099 -2.086911 4.261984 22.093389 2.503062 0.503431 3.150024 0.439640 0.786967 5.066698 0.719666 3.338187 18.633883 3.094351 -1.569763 12.113528 0.201041 -3.135530 -13.308386 1.046865 -3.565143 0.964872 -1.782282 -8.462865 -2.678670 1.239040 -87.229517 -35.021119 118.974121 -1.804047 10.008304 59.064887 -4.766650 1.560039 -0.218929 10.901162 -7.219536 0.944856 81.615556 -26.928668 -121.361186 14.140820 13.410398 -43.604985 -4.799775 -43.777062 3.832475 -122.607454 85.137180 -117.979230 -0.318814 -9.827012 -3.327408 0.590678 -1.103085 0.251141 -1.129915 -40.312356 5.401397 73.417727 83.023498 63.380210 -5.539380 -12.668997 9.153220 0.455122 1.383086 0.210521
-5.917546 52.285972 29.454039 171.686192 -37.508256 -2.096536 4.291296 22.110219 2.524699 0.485926 3.132746 0.438660 0.777993 5.060024 0.717194 3.357370 18.641381 3.106912 -1.495278 12.183050 0.245483 -3.014160 -13.173069 1.098300 -3.555138 0.984581 -1.752091 -8.439167 -2.693425 1.295358 -87.591078 -35.467558 119.008383 -1.866928 10.009091 58.679294 -4.778764 1.552002 -0.216356 10.868767 -7.213305 0.954233 81.557020 -26.870446 -121.077639 14.471609 13.191400 -42.887484 -4.814067 -43.791776 3.834408 -122.749017 85.134583 -118.114321 -0.321259 -9.836328 -3.330343 0.593003 -1.104113 0.251498 -1.138182 -40.329285 5.404186 73.498220 83.028398 63.460312 -5.530888 -12.680004 9.155223 0.451862 1.385835 0.209176
-5.913499 52.281950 29.448774 171.681001 -37.483007 -2.098217 4.312867 22.100076 2.538638 0.487247 3.132236 0.439784 0.784517 5.057648 0.720481 3.395299 18.651346 3.129796 -1.454783 12.246996 0.283327 -2.891463 -13.030531 1.147124 -3.603209 0.970570 -1.748173 -8.390918 -2.684759 1.369616 -88.030400 -35.998919 119.071929 -1.881841 10.044673 58.306795 -4.823048 1.535728 -0.219608 10.842982 -7.222978 0.955354 81.506654 -26.854433 -120.783296 14.797827 12.956438 -42.137728 -4.815468 -43.818441 3.839440 -122.860022 85.133951 -118.219100 -0.307445 -9.842830 -3.331765 0.580236 -1.101879 0.249332 -1.134801 -40.356612 5.414461 73.633823 83.031074 63.590901 -5.523541 -12.697669 9.163111 0.431884 1.389846 0.204488
-5.909928 52.279462 29.441073 171.689339 -37.471517 -2.102770 4.316263 22.100789 2.544006 0.493113 3.134966 0.441989 0.787015 5.058865 0.722937 3.396029 18.643438 3.132358 -1.376583 12.325654 0.323708 -2.772434 -12.890398 1.193358 -3.598792 0.984344 -1.733273 -8.362650 -2.690640 1.443184 -88.555423 -36.627368 119.173980 -1.830468 10.106404 57.937845 -4.813966 1.540697 -0.216231 10.798804 -7.237640 0.957008 81.484138 -26.874635 -120.491816 15.113133 12.703770 -41.365927 -4.817468 -43.829101 3.833527 -123.023572 85.130802 -118.367931 -0.309994 -9.858734 -3.347199 0.587860 -1.097514 0.258301 -1.130182 -40.369436 5.418592 73.723212 83.042542 63.677134 -5.522578 -12.705910 9.176534 0.427402 1.387236 0.199619
-5.906617 52.277405 29.433117 171.684597 -37.462576 -2.098547 4.322263 22.095720 2.543947 0.503080 3.141280 0.445126 0.790201 5.062118 0.724506 3.385351 18.632201 3.130365 -1.288822 12.402657 0.359814 -2.660009 -12.764188 1.236082 -3.581446 1.010577 -1.722943 -8.362775 -2.711757 1.480946 -89.137882 -37.303824 119.310338 -1.698323 10.170712 57.575198 -4.797508 1.550489 -0.211298 10.705089 -7.268939 0.999515 81.534831 -26.899344 -120.188078 15.414973 12.429916 -40.580626 -4.806373 -43.839445 3.824147 -123.203974 85.130257 -118.533460 -0.311332 -9.867055 -3.361427 0.590144 -1.099509 0.263210 -1.116244 -40.377231 5.420320 73.819564 83.047433 63.769783 -5.522698 -12.716543 9.186456 0.420963 1.389594 0.194774
-5.904003 52.277863 29.422517 171.680176 -37.476313 -2.090344 4.343763 22.122576 2.551759 0.490256 3.130965 0.441086 0.807424 5.071209 0.729185 3.395746 18.629635 3.134790 -1.233977 12.458737 0.392877 -2.552389 -12.661444 1.274525 -3.553196 1.054552 -1.698045 -8.345072 -2.750787 1.566823 -89.855068 -38.113056 119.501765 -1.481631 10.219105 57.236828 -4.808214 1.545020 -0.204642 10.646868 -7.291389 1.021275 81.581427 -26.983631 -119.891700 15.699996 12.137938 -39.792520 -4.801819 -43.823327 3.811176 -123.461231 85.135309 -118.780495 -0.322638 -9.886841 -3.379576 0.597516 -1.098213 0.268270 -1.079900 -40.357251 5.411693 73.891282 83.058247 63.842986 -5.532782 -12.738796 9.203128 0.415503 1.395019 0.193697
-5.902584 52.274494 29.417898 171.696002 -37.449904 -2.095762 4.349550 22.118003 2.553017 0.484819 3.122040 0.442388 0.820712 5.081154 0.729281 3.395332 18.616783 3.140144 -1.198670 12.490546 0.418054 -2.433521 -12.574865 1.312565 -3.562859 1.056377 -1.687284 -8.267296 -2.751191 1.650798 -90.633368 -38.960134 119.728378 -1.187046 10.243801 56.943076 -4.815449 1.537800 -0.201179 10.587239 -7.321024 1.050307 81.663339 -27.111157 -119.595253 15.962952 11.833457 -39.021847 -4.817142 -43.849318 3.807828 -123.590121 85.132290 -118.902902 -0.325029 -9.901300 -3.392011 0.602855 -1.094490 0.272218 -1.078807 -40.382508 5.406007 73.895678 83.064286 63.851905 -5.541966 -12.752536 9.201786 0.421737 1.407139 0.199174
-5.901603 52.272856 29.412140 171.704293 -37.439717 -2.096743 4.350486 22.117289 2.550038 0.486207 3.124316 0.443066 0.816214 5.074047 0.730058 3.405273 18.623847 3.141345 -1.192733 12.491423 0.429499 -2.290291 -12.494419 1.353836 -3.561822 1.057495 -1.675791 -8.241842 -2.761526 1.678020 -91.374799 -39.774711 119.968918 -0.828902 10.245782 56.708775 -4.815624 1.528356 -0.198815 10.530497 -7.355234 1.082242 81.787777 -27.301006 -119.296661 16.204039 11.518868 -38.293063 -4.825566 -43.859246 3.803346 -123.718803 85.130873 -119.026339 -0.331510 -9.910859 -3.402639 0.606218 -1.093797 0.274618 -1.078481 -40.391421 5.403397 73.967616 83.065540 63.915953 -5.538716 -12.761927 9.214241 0.408087 1.406833 0.194100
-5.901005 52.271061 29.407818 171.707458 -37.427754 -2.097343 4.357492 22.116770 2.550406 0.486323 3.119963 0.443199 0.811957 5.069843 0.731301 3.413667 18.624912 3.144825 -1.136582 12.521814 0.459138 -2.203099 -12.463129 1.384121 -3.547834 1.074938 -1.657371 -8.229334 -2.784969 1.693574 -92.120350 -40.603462 120.230099 -0.437201 10.233097 56.525486 -4.800644 1.528319 -0.188621 10.459561 -7.392250 1.101911 81.974510 -27.576670 -118.999747 16.430344 11.197581 -37.607801 -4.841285 -43.869232 3.809550 -123.785771 85.131296 -119.098186 -0.332130 -9.921331 -3.405437 0.606357 -1.089441 0.272758 -1.061970 -40.402659 5.402279 74.029362 83.066363 63.971979 -5.543697 -12.767553 9.235788 0.393167 1.405446 0.186492
-5.901049 52.269380 29.404527 171.708659 -37.417302 -2.097242 4.360583 22.117822 2.550717 0.489387 3.117492 0.442224 0.817658 5.081270 0.735164 3.410915 18.609644 3.146707 -1.022808 12.569321 0.516402 -2.172834 -12.460614 1.398518 -3.537061 1.091162 -1.649906 -8.185905 -2.817752 1.730879 -92.881844 -41.465065 120.504879 -0.041862 10.215476 56.367914 -4.799078 1.524594 -0.186032 10.413005 -7.420167 1.117787 82.242317 -27.971695 -118.725912 16.650072 10.866921 -36.934936 -4.856086 -43.876652 3.809592 -123.874983 85.139403 -119.190231 -0.319995 -9.932772 -3.413240 0.594314 -1.081965 0.271047 -1.042237 -40.411206 5.397368 74.060933 83.063265 64.005794 -5.554597 -12.775850 9.243315 0.397095 1.410150 0.188414
-5.901784 52.267591 29.402570 171.710801 -37.406319 -2.097614 4.358979 22.116916 2.549525 0.494703 3.118653 0.443762 0.813537 5.081331 0.735246 3.418156 18.609535 3.151839 -0.974302 12.589820 0.544143 -2.086324 -12.432528 1.430698 -3.521112 1.104757 -1.649126 -8.171825 -2.868488 1.754830 -93.599615 -42.333318 120.780074 0.334219 10.202329 56.201849 -4.796122 1.519862 -0.186363 10.389668 -7.435538 1.119783 82.616463 -28.527285 -118.502675 16.867869 10.511050 -36.224330 -4.863632 -43.887389 3.811732 -123.876514 85.134287 -119.191744 -0.316754 -9.939202 -3.418911 0.591558 -1.078837 0.270859 -1.022326 -40.419017 5.390932 74.048000 83.061777 64.000653 -5.578124 -12.787310 9.248579 0.401127 1.423264 0.190740
-5.900912 52.265059 29.403281 171.708894 -37.387926 -2.109594 4.364363 22.101135 2.562066 0.496044 3.146244 0.443627 0.812921 5.054310 0.735505 3.423793 18.623197 3.158742 -0.924906 12.607667 0.569743 -2.003353 -12.401355 1.468632 -3.490142 1.134908 -1.641311 -8.149680 -3.000304 1.766458 -94.293536 -43.228590 121.005071 0.670566 10.202081 55.980655 -4.790386 1.513033 -0.187541 10.337370 -7.474016 1.136611 83.175012 -29.266514 -118.313458 17.089303 10.104899 -35.426004 -4.884582 -43.905393 3.835542 -123.818924 85.127220 -119.132387 -0.310629 -9.937990 -3.427955 0.593438 -1.078481 0.272308 -1.008946 -40.440683 5.402606 74.069346 83.063879 64.030098 -5.579521 -12.789974 9.246494 0.400850 1.425286 0.198677
-5.901587 52.262865 29.404561 171.709577 -37.373249 -2.116271 4.367903 22.100973 2.567987 0.493447 3.147135 0.441095 0.817397 5.055442 0.738314 3.427518 18.624697 3.160013 -0.903473 12.607702 0.585175 -1.900819 -12.345491 1.517640 -3.480924 1.141221 -1.637759 -8.113795 -3.072926 1.758923 -95.017981 -44.124158 121.301731 0.959588 10.204985 55.668144 -4.793247 1.499971 -0.184650 10.294342 -7.501342 1.157371 83.938273 -30.255743 -118.207055 17.319280 9.622736 -34.508727 -4.897388 -43.920604 3.848059 -123.790914 85.124822 -119.104267 -0.309114 -9.938034 -3.428846 0.594594 -1.076845 0.270267 -1.002005 -40.456942 5.410844 74.072816 83.066504 64.033168 -5.585034 -12.791343 9.251992 0.403659 1.427629 0.200626
-5.902461 52.261134 29.406469 171.702633 -37.363231 -2.119162 4.374709 22.105356 2.571722 0.492427 3.143752 0.439849 0.818343 5.074891 0.734377 3.437877 18.613287 3.163889 -0.847083 12.637881 0.622269 -1.830577 -12.318916 1.556420 -3.478487 1.134016 -1.632840 -8.044181 -3.135783 1.734653 -95.757303 -45.028211 121.604742 1.196955 10.185721 55.259132 -4.796133 1.485573 -0.178516 10.261702 -7.522675 1.176449 84.915826 -31.526945 -118.199395 17.547197 9.042721 -33.473041 -4.904638 -43.930673 3.860788 -123.754886 85.125226 -119.067640 -0.310296 -9.941559 -3.425584 0.598103 -1.071268 0.264516 -0.996017 -40.468007 5.420389 74.069468 83.068551 64.030149 -5.591625 -12.792564 9.254229 0.417110 1.430390 0.201254
-5.904534 52.259469 29.409276 171.694295 -37.353561 -2.116102 4.376116 22.109398 2.564934 0.497084 3.133685 0.444246 0.818763 5.075461 0.734179 3.438178 18.630209 3.156883 -0.788036 12.665927 0.661236 -1.755481 -12.294743 1.598849 -3.470337 1.144684 -1.630670 -7.947276 -3.219925 1.703087 -96.482677 -45.927039 121.889092 1.380124 10.130177 54.775309 -4.800473 1.479805 -0.171950 10.241639 -7.541109 1.207764 86.106245 -33.057934 -118.310714 17.744625 8.354272 -32.345178 -4.915598 -43.940669 3.868579 -123.738182 85.130388 -119.056431 -0.304204 -9.943028 -3.427506 0.593341 -1.066237 0.261799 -0.984843 -40.477556 5.426425 74.071097 83.065542 64.022806 -5.596026 -12.791435 9.260692 0.412892 1.430806 0.202650
